G04 Layer: TopPasteMaskLayer - CM4 DF40 connectors only*
G04 Generated from Gerber_TopPasteMaskLayer.GTP (EasyEDA 2026-09-14)*
G04 Dimensions in millimeters, 4 integer / 5 decimal, absolute, leading zeros omitted*
%FSLAX45Y45*%
%MOMM*%

%AMMACRO1*21,1,$1,$2,0,0,$3*%
%ADD46R,0.7000X0.2000*%
%ADD47MACRO1,0.2X0.7X90.0000*%
D46*
X9194596Y7643291D03*
D46*
X8886596Y7643291D03*
D46*
X9194596Y7683296D03*
D46*
X8886596Y7683296D03*
D46*
X9194596Y7723301D03*
D46*
X8886596Y7723301D03*
D46*
X9194596Y7763306D03*
D46*
X8886596Y7763306D03*
D46*
X9194596Y7803311D03*
D46*
X8886596Y7803311D03*
D46*
X9194596Y7843291D03*
D46*
X8886596Y7843291D03*
D46*
X9194596Y7883296D03*
D46*
X8886596Y7883296D03*
D46*
X9194596Y7923301D03*
D46*
X8886596Y7923301D03*
D46*
X9194596Y7963306D03*
D46*
X8886596Y7963306D03*
D46*
X9194596Y8003311D03*
D46*
X8886596Y8003311D03*
D46*
X9194596Y8043290D03*
D46*
X8886596Y8043290D03*
D46*
X9194596Y8083295D03*
D46*
X8886596Y8083295D03*
D46*
X9194596Y8123301D03*
D46*
X8886596Y8123301D03*
D46*
X9194596Y8163305D03*
D46*
X8886596Y8163305D03*
D46*
X9194596Y8203311D03*
D46*
X8886596Y8203311D03*
D46*
X9194596Y8243290D03*
D46*
X8886596Y8243290D03*
D46*
X9194596Y8283295D03*
D46*
X8886596Y8283295D03*
D46*
X9194596Y8323300D03*
D46*
X8886596Y8323300D03*
D46*
X9194596Y8363305D03*
D46*
X8886596Y8363305D03*
D46*
X9194596Y8403310D03*
D46*
X8886596Y8403310D03*
D46*
X9194596Y8443290D03*
D46*
X8886596Y8443290D03*
D46*
X9194596Y8483295D03*
D46*
X8886596Y8483295D03*
D46*
X9194596Y8523300D03*
D46*
X8886596Y8523300D03*
D46*
X9194596Y8563305D03*
D46*
X8886596Y8563305D03*
D46*
X9194596Y8603310D03*
D46*
X8886596Y8603310D03*
D46*
X9194596Y8643289D03*
D46*
X8886596Y8643289D03*
D46*
X9194596Y8683294D03*
D46*
X8886596Y8683294D03*
D46*
X9194596Y8723299D03*
D46*
X8886596Y8723299D03*
D46*
X9194596Y8763304D03*
D46*
X8886596Y8763304D03*
D46*
X9194596Y8803309D03*
D46*
X8886596Y8803309D03*
D46*
X9194596Y8843289D03*
D46*
X8886596Y8843289D03*
D46*
X9194596Y8883294D03*
D46*
X8886596Y8883294D03*
D46*
X9194596Y8923299D03*
D46*
X8886596Y8923299D03*
D46*
X9194596Y8963304D03*
D46*
X8886596Y8963304D03*
D46*
X9194596Y9003309D03*
D46*
X8886596Y9003309D03*
D46*
X9194596Y9043288D03*
D46*
X8886596Y9043288D03*
D46*
X9194596Y9083294D03*
D46*
X8886596Y9083294D03*
D46*
X9194596Y9123299D03*
D46*
X8886596Y9123299D03*
D46*
X9194596Y9163304D03*
D46*
X8886596Y9163304D03*
D46*
X9194596Y9203309D03*
D46*
X8886596Y9203309D03*
D46*
X9194596Y9243288D03*
D46*
X8886596Y9243288D03*
D46*
X9194596Y9283293D03*
D46*
X8886596Y9283293D03*
D46*
X9194596Y9323298D03*
D46*
X8886596Y9323298D03*
D46*
X9194596Y9363303D03*
D46*
X8886596Y9363303D03*
D46*
X9194596Y9403308D03*
D46*
X8886596Y9403308D03*
D46*
X9194596Y9443288D03*
D46*
X8886596Y9443288D03*
D46*
X9194596Y9483293D03*
D46*
X8886596Y9483293D03*
D46*
X9194596Y9523298D03*
D46*
X8886596Y9523298D03*
D46*
X9194596Y9563303D03*
D46*
X8886596Y9563303D03*
D47*
X5794599Y7643301D03*
D47*
X5486599Y7643301D03*
D47*
X5794599Y7683301D03*
D47*
X5486599Y7683301D03*
D47*
X5794599Y7723301D03*
D47*
X5486599Y7723301D03*
D47*
X5794599Y7763301D03*
D47*
X5486599Y7763301D03*
D47*
X5794599Y7803301D03*
D47*
X5486599Y7803301D03*
D47*
X5794599Y7843301D03*
D47*
X5486599Y7843301D03*
D47*
X5794599Y7883301D03*
D47*
X5486599Y7883301D03*
D47*
X5794599Y7923301D03*
D47*
X5486599Y7923301D03*
D47*
X5794599Y7963301D03*
D47*
X5486599Y7963301D03*
D47*
X5794599Y8003301D03*
D47*
X5486599Y8003301D03*
D47*
X5794599Y8043301D03*
D47*
X5486599Y8043301D03*
D47*
X5794599Y8083301D03*
D47*
X5486599Y8083301D03*
D47*
X5794599Y8123301D03*
D47*
X5486599Y8123301D03*
D47*
X5794599Y8163300D03*
D47*
X5486599Y8163300D03*
D47*
X5794599Y8203300D03*
D47*
X5486599Y8203300D03*
D47*
X5794599Y8243300D03*
D47*
X5486599Y8243300D03*
D47*
X5794599Y8283300D03*
D47*
X5486599Y8283300D03*
D47*
X5794599Y8323300D03*
D47*
X5486599Y8323300D03*
D47*
X5794599Y8363300D03*
D47*
X5486599Y8363300D03*
D47*
X5794599Y8403300D03*
D47*
X5486599Y8403300D03*
D47*
X5794599Y8443300D03*
D47*
X5486599Y8443300D03*
D47*
X5794599Y8483300D03*
D47*
X5486599Y8483300D03*
D47*
X5794599Y8523300D03*
D47*
X5486599Y8523300D03*
D47*
X5794599Y8563300D03*
D47*
X5486599Y8563300D03*
D47*
X5794599Y8603300D03*
D47*
X5486599Y8603300D03*
D47*
X5794599Y8643299D03*
D47*
X5486599Y8643299D03*
D47*
X5794599Y8683299D03*
D47*
X5486599Y8683299D03*
D47*
X5794599Y8723299D03*
D47*
X5486599Y8723299D03*
D47*
X5794599Y8763299D03*
D47*
X5486599Y8763299D03*
D47*
X5794599Y8803299D03*
D47*
X5486599Y8803299D03*
D47*
X5794599Y8843299D03*
D47*
X5486599Y8843299D03*
D47*
X5794599Y8883299D03*
D47*
X5486599Y8883299D03*
D47*
X5794599Y8923299D03*
D47*
X5486599Y8923299D03*
D47*
X5794599Y8963299D03*
D47*
X5486599Y8963299D03*
D47*
X5794599Y9003299D03*
D47*
X5486599Y9003299D03*
D47*
X5794599Y9043299D03*
D47*
X5486599Y9043299D03*
D47*
X5794599Y9083299D03*
D47*
X5486599Y9083299D03*
D47*
X5794599Y9123299D03*
D47*
X5486599Y9123299D03*
D47*
X5794599Y9163298D03*
D47*
X5486599Y9163298D03*
D47*
X5794599Y9203298D03*
D47*
X5486599Y9203298D03*
D47*
X5794599Y9243298D03*
D47*
X5486599Y9243298D03*
D47*
X5794599Y9283298D03*
D47*
X5486599Y9283298D03*
D47*
X5794599Y9323298D03*
D47*
X5486599Y9323298D03*
D47*
X5794599Y9363298D03*
D47*
X5486599Y9363298D03*
D47*
X5794599Y9403298D03*
D47*
X5486599Y9403298D03*
D47*
X5794599Y9443298D03*
D47*
X5486599Y9443298D03*
D47*
X5794599Y9483298D03*
D47*
X5486599Y9483298D03*
D47*
X5794599Y9523298D03*
D47*
X5486599Y9523298D03*
D47*
X5794599Y9563298D03*
D47*
X5486599Y9563298D03*
D47*
X5794599Y9603298D03*
D47*
X5486599Y9603298D03*
D46*
X9194596Y9603308D03*
D46*
X8886596Y9603308D03*
M02*
