<svg xmlns="http://www.w3.org/2000/svg" viewBox="0 0 1200 800" font-family="system-ui, -apple-system, sans-serif">
  <defs>
    <linearGradient id="mapBg" x1="0%" y1="0%" x2="100%" y2="100%">
      <stop offset="0%" style="stop-color:#2d5016"/>
      <stop offset="50%" style="stop-color:#3a6b1e"/>
      <stop offset="100%" style="stop-color:#2d5016"/>
    </linearGradient>
    <filter id="shadow">
      <feDropShadow dx="0" dy="2" stdDeviation="4" flood-opacity="0.3"/>
    </filter>
    <filter id="shadowSmall">
      <feDropShadow dx="0" dy="1" stdDeviation="2" flood-opacity="0.25"/>
    </filter>
  </defs>

  <!-- ============================================ -->
  <!-- SCENE 1: ACTIVE GUIDANCE (auto-hide ON)      -->
  <!-- ============================================ -->

  <!-- Title -->
  <text x="600" y="30" text-anchor="middle" font-size="18" font-weight="bold" fill="#333">ACTIVE GUIDANCE MODE (auto-hide on, tractor moving)</text>

  <!-- Map background -->
  <rect x="0" y="45" width="1200" height="355" rx="8" fill="url(#mapBg)"/>

  <!-- Field lines on map -->
  <g stroke="#5a9e2f" stroke-width="1.5" opacity="0.6">
    <line x1="200" y1="80" x2="200" y2="380"/>
    <line x1="260" y1="80" x2="260" y2="380"/>
    <line x1="320" y1="80" x2="320" y2="380"/>
    <line x1="380" y1="80" x2="380" y2="380"/>
    <line x1="440" y1="80" x2="440" y2="380"/>
    <line x1="500" y1="80" x2="500" y2="380"/>
    <line x1="560" y1="80" x2="560" y2="380"/>
    <line x1="620" y1="80" x2="620" y2="380"/>
    <line x1="680" y1="80" x2="680" y2="380"/>
    <line x1="740" y1="80" x2="740" y2="380"/>
    <line x1="800" y1="80" x2="800" y2="380"/>
    <line x1="860" y1="80" x2="860" y2="380"/>
    <line x1="920" y1="80" x2="920" y2="380"/>
    <line x1="980" y1="80" x2="980" y2="380"/>
  </g>

  <!-- Coverage shading -->
  <rect x="200" y="80" x2="560" width="360" height="300" fill="#4a8c1a" opacity="0.4"/>

  <!-- Guidance line (active) -->
  <line x1="560" y1="80" x2="560" y2="380" stroke="#ff0" stroke-width="3"/>

  <!-- Tractor icon -->
  <g transform="translate(555, 220)">
    <rect x="-8" y="-20" width="16" height="40" rx="3" fill="#e74c3c" stroke="#c0392b" stroke-width="1.5"/>
    <rect x="-12" y="-24" width="24" height="8" rx="2" fill="#c0392b"/>
    <line x1="0" y1="-28" x2="0" y2="-38" stroke="#e74c3c" stroke-width="2"/>
    <circle cx="0" cy="-40" r="3" fill="#e74c3c"/>
  </g>

  <!-- TOP: Status Bar (always visible) -->
  <rect x="8" y="53" width="320" height="44" rx="8" fill="#1a1a2e" opacity="0.9" filter="url(#shadowSmall)"/>
  <text x="20" y="72" font-size="11" fill="#2ecc71" font-weight="bold">RTK Fix</text>
  <text x="80" y="72" font-size="11" fill="#ecf0f1">12.4 km/h</text>
  <text x="155" y="72" font-size="11" fill="#ecf0f1">182.3*</text>
  <text x="210" y="72" font-size="11" fill="#ecf0f1">30 FPS</text>
  <text x="265" y="72" font-size="11" fill="#ecf0f1">14ms</text>
  <text x="20" y="90" font-size="10" fill="#95a5a6">43.1234* N  89.5678* W</text>

  <!-- TOP RIGHT: Field Stats (always visible) -->
  <rect x="872" y="53" width="320" height="44" rx="8" fill="#1a1a2e" opacity="0.9" filter="url(#shadowSmall)"/>
  <text x="884" y="72" font-size="11" fill="#ecf0f1" font-weight="bold">North 40</text>
  <text x="975" y="72" font-size="11" fill="#ecf0f1">162.3 ac</text>
  <text x="1060" y="72" font-size="11" fill="#2ecc71">67% done</text>
  <text x="884" y="90" font-size="10" fill="#95a5a6">42.1 ac/hr  |  1.3 ac remain</text>

  <!-- LEFT BAR: Faded/ghost (auto-hidden) -->
  <g opacity="0.15">
    <rect x="8" y="108" width="64" height="280" rx="10" fill="#1a1a2e"/>
    <rect x="16" y="116" width="48" height="48" rx="6" fill="#2c3e50"/>
    <rect x="16" y="172" width="48" height="48" rx="6" fill="#2c3e50"/>
    <rect x="16" y="228" width="48" height="48" rx="6" fill="#2c3e50"/>
    <rect x="16" y="284" width="48" height="48" rx="6" fill="#2c3e50"/>
    <rect x="16" y="340" width="48" height="48" rx="6" fill="#2c3e50"/>
  </g>
  <text x="40" y="270" text-anchor="middle" font-size="9" fill="#fff" opacity="0.4">tap to</text>
  <text x="40" y="282" text-anchor="middle" font-size="9" fill="#fff" opacity="0.4">reveal</text>

  <!-- RIGHT BAR: Faded/ghost (auto-hidden) -->
  <g opacity="0.15">
    <rect x="1128" y="108" width="64" height="280" rx="10" fill="#1a1a2e"/>
    <rect x="1136" y="116" width="48" height="48" rx="6" fill="#2c3e50"/>
    <rect x="1136" y="172" width="48" height="48" rx="6" fill="#2c3e50"/>
    <rect x="1136" y="228" width="48" height="48" rx="6" fill="#2c3e50"/>
    <rect x="1136" y="284" width="48" height="48" rx="6" fill="#2c3e50"/>
    <rect x="1136" y="340" width="48" height="48" rx="6" fill="#2c3e50"/>
  </g>
  <text x="1160" y="270" text-anchor="middle" font-size="9" fill="#fff" opacity="0.4">tap to</text>
  <text x="1160" y="282" text-anchor="middle" font-size="9" fill="#fff" opacity="0.4">reveal</text>

  <!-- BOTTOM BAR: Shortcuts (always visible, single row) -->
  <rect x="250" y="342" width="700" height="52" rx="10" fill="#1a1a2e" opacity="0.92" filter="url(#shadow)"/>

  <!-- Shortcut buttons -->
  <!-- Sections (count + color) -->
  <rect x="262" y="348" width="44" height="40" rx="6" fill="#2ecc71"/>
  <text x="284" y="374" text-anchor="middle" font-size="18" font-weight="bold" fill="#fff">8</text>

  <!-- AutoSteer (active=green) -->
  <rect x="314" y="348" width="44" height="40" rx="6" fill="#2ecc71"/>
  <text x="336" y="368" text-anchor="middle" font-size="9" fill="#fff" font-weight="bold">AUTO</text>
  <text x="336" y="380" text-anchor="middle" font-size="9" fill="#fff" font-weight="bold">STEER</text>

  <!-- Contour (off=dark) -->
  <rect x="366" y="348" width="44" height="40" rx="6" fill="#2c3e50"/>
  <text x="388" y="368" text-anchor="middle" font-size="9" fill="#95a5a6" font-weight="bold">CTR</text>
  <text x="388" y="380" text-anchor="middle" font-size="9" fill="#95a5a6" font-weight="bold">OFF</text>

  <!-- Section Master (on=green) -->
  <rect x="418" y="348" width="44" height="40" rx="6" fill="#2ecc71"/>
  <text x="440" y="368" text-anchor="middle" font-size="9" fill="#fff" font-weight="bold">SEC</text>
  <text x="440" y="380" text-anchor="middle" font-size="9" fill="#fff" font-weight="bold">MST</text>

  <!-- Headland (on=green) -->
  <rect x="470" y="348" width="44" height="40" rx="6" fill="#2ecc71"/>
  <text x="492" y="368" text-anchor="middle" font-size="9" fill="#fff" font-weight="bold">HDL</text>
  <text x="492" y="380" text-anchor="middle" font-size="9" fill="#fff" font-weight="bold">ON</text>

  <!-- YouTurn -->
  <rect x="522" y="348" width="44" height="40" rx="6" fill="#2ecc71"/>
  <text x="544" y="374" text-anchor="middle" font-size="10" fill="#fff" font-weight="bold">U-T</text>

  <!-- Snap Left -->
  <rect x="574" y="348" width="44" height="40" rx="6" fill="#2c3e50"/>
  <text x="596" y="374" text-anchor="middle" font-size="14" fill="#ecf0f1">&lt;&lt;</text>

  <!-- Snap Right -->
  <rect x="626" y="348" width="44" height="40" rx="6" fill="#2c3e50"/>
  <text x="648" y="374" text-anchor="middle" font-size="14" fill="#ecf0f1">&gt;&gt;</text>

  <!-- Manual Mode (off) -->
  <rect x="678" y="348" width="44" height="40" rx="6" fill="#2c3e50"/>
  <text x="700" y="368" text-anchor="middle" font-size="9" fill="#95a5a6" font-weight="bold">MAN</text>
  <text x="700" y="380" text-anchor="middle" font-size="9" fill="#95a5a6" font-weight="bold">OFF</text>

  <!-- Nudge Left -->
  <rect x="730" y="348" width="44" height="40" rx="6" fill="#2c3e50"/>
  <text x="752" y="368" text-anchor="middle" font-size="9" fill="#ecf0f1" font-weight="bold">A+</text>
  <text x="752" y="380" text-anchor="middle" font-size="9" fill="#ecf0f1" font-weight="bold">NDG</text>

  <!-- Nudge Right -->
  <rect x="782" y="348" width="44" height="40" rx="6" fill="#2c3e50"/>
  <text x="804" y="368" text-anchor="middle" font-size="9" fill="#ecf0f1" font-weight="bold">B+</text>
  <text x="804" y="380" text-anchor="middle" font-size="9" fill="#ecf0f1" font-weight="bold">NDG</text>

  <!-- Flags -->
  <rect x="834" y="348" width="44" height="40" rx="6" fill="#2c3e50"/>
  <text x="856" y="374" text-anchor="middle" font-size="14" fill="#e74c3c">FLAG</text>

  <!-- Layout name -->
  <rect x="890" y="348" width="52" height="40" rx="6" fill="#1a1a2e" stroke="#3498db" stroke-width="1" stroke-dasharray="3,2"/>
  <text x="916" y="368" text-anchor="middle" font-size="8" fill="#3498db">Sprayer</text>
  <text x="916" y="380" text-anchor="middle" font-size="8" fill="#3498db">Layout</text>

  <!-- Label -->
  <text x="600" y="410" text-anchor="middle" font-size="11" fill="#666" font-style="italic">Bottom bar: operator-curated shortcuts - always visible during guidance</text>


  <!-- ============================================ -->
  <!-- SCENE 2: SETUP MODE (bars visible)           -->
  <!-- ============================================ -->

  <text x="600" y="450" text-anchor="middle" font-size="18" font-weight="bold" fill="#333">SETUP / STOPPED MODE (all bars visible)</text>

  <!-- Map background -->
  <rect x="0" y="465" width="1200" height="335" rx="8" fill="url(#mapBg)"/>

  <!-- Field lines -->
  <g stroke="#5a9e2f" stroke-width="1.5" opacity="0.6">
    <line x1="200" y1="500" x2="200" y2="780"/>
    <line x1="260" y1="500" x2="260" y2="780"/>
    <line x1="320" y1="500" x2="320" y2="780"/>
    <line x1="380" y1="500" x2="380" y2="780"/>
    <line x1="440" y1="500" x2="440" y2="780"/>
    <line x1="500" y1="500" x2="500" y2="780"/>
    <line x1="560" y1="500" x2="560" y2="780"/>
    <line x1="620" y1="500" x2="620" y2="780"/>
    <line x1="680" y1="500" x2="680" y2="780"/>
    <line x1="740" y1="500" x2="740" y2="780"/>
    <line x1="800" y1="500" x2="800" y2="780"/>
  </g>

  <!-- Coverage -->
  <rect x="200" y="500" x2="440" width="240" height="280" fill="#4a8c1a" opacity="0.4"/>

  <!-- Tractor (stopped) -->
  <g transform="translate(440, 640)">
    <rect x="-8" y="-20" width="16" height="40" rx="3" fill="#e74c3c" stroke="#c0392b" stroke-width="1.5"/>
    <rect x="-12" y="-24" width="24" height="8" rx="2" fill="#c0392b"/>
  </g>

  <!-- TOP: Status Bar -->
  <rect x="8" y="473" width="320" height="44" rx="8" fill="#1a1a2e" opacity="0.9" filter="url(#shadowSmall)"/>
  <text x="20" y="492" font-size="11" fill="#2ecc71" font-weight="bold">RTK Fix</text>
  <text x="80" y="492" font-size="11" fill="#f39c12">0.0 km/h</text>
  <text x="155" y="492" font-size="11" fill="#ecf0f1">182.3*</text>
  <text x="210" y="492" font-size="11" fill="#ecf0f1">30 FPS</text>
  <text x="20" y="510" font-size="10" fill="#95a5a6">43.1234* N  89.5678* W</text>

  <!-- TOP RIGHT: Field Stats -->
  <rect x="872" y="473" width="320" height="44" rx="8" fill="#1a1a2e" opacity="0.9" filter="url(#shadowSmall)"/>
  <text x="884" y="492" font-size="11" fill="#ecf0f1" font-weight="bold">North 40</text>
  <text x="975" y="492" font-size="11" fill="#ecf0f1">162.3 ac</text>
  <text x="1060" y="492" font-size="11" fill="#2ecc71">67% done</text>
  <text x="884" y="510" font-size="10" fill="#95a5a6">42.1 ac/hr  |  1.3 ac remain</text>

  <!-- LEFT BAR: Fully visible (menus & config) -->
  <rect x="8" y="528" width="64" height="250" rx="10" fill="#1a1a2e" opacity="0.92" filter="url(#shadow)"/>

  <!-- Left bar buttons with icons -->
  <rect x="16" y="536" width="48" height="40" rx="6" fill="#2c3e50"/>
  <text x="40" y="560" text-anchor="middle" font-size="9" fill="#ecf0f1" font-weight="bold">FILE</text>

  <rect x="16" y="582" width="48" height="40" rx="6" fill="#2c3e50"/>
  <text x="40" y="606" text-anchor="middle" font-size="9" fill="#ecf0f1" font-weight="bold">VIEW</text>

  <rect x="16" y="628" width="48" height="40" rx="6" fill="#2c3e50"/>
  <text x="40" y="652" text-anchor="middle" font-size="9" fill="#ecf0f1" font-weight="bold">TOOLS</text>

  <rect x="16" y="674" width="48" height="40" rx="6" fill="#2c3e50"/>
  <text x="40" y="698" text-anchor="middle" font-size="9" fill="#ecf0f1" font-weight="bold">CONFIG</text>

  <rect x="16" y="720" width="48" height="40" rx="6" fill="#2c3e50"/>
  <text x="40" y="738" text-anchor="middle" font-size="9" fill="#ecf0f1" font-weight="bold">FIELD</text>
  <text x="40" y="750" text-anchor="middle" font-size="9" fill="#ecf0f1" font-weight="bold">TOOLS</text>

  <!-- Left bar label -->
  <text x="40" y="790" text-anchor="middle" font-size="9" fill="#3498db" font-weight="bold">MENUS</text>

  <!-- Left bar sub-panel (Tools open) -->
  <rect x="82" y="528" width="200" height="200" rx="10" fill="#1a1a2e" opacity="0.95" filter="url(#shadow)"/>
  <text x="182" y="550" text-anchor="middle" font-size="12" fill="#ecf0f1" font-weight="bold">Tools Panel</text>
  <line x1="96" y1="558" x2="268" y2="558" stroke="#2c3e50" stroke-width="1"/>
  <rect x="96" y="568" width="80" height="32" rx="4" fill="#2c3e50"/>
  <text x="136" y="588" text-anchor="middle" font-size="9" fill="#ecf0f1">Steer Chart</text>
  <rect x="184" y="568" width="80" height="32" rx="4" fill="#2c3e50"/>
  <text x="224" y="588" text-anchor="middle" font-size="9" fill="#ecf0f1">Hdg Chart</text>
  <rect x="96" y="608" width="80" height="32" rx="4" fill="#2c3e50"/>
  <text x="136" y="628" text-anchor="middle" font-size="9" fill="#ecf0f1">XTE Chart</text>
  <rect x="184" y="608" width="80" height="32" rx="4" fill="#2c3e50"/>
  <text x="224" y="628" text-anchor="middle" font-size="9" fill="#ecf0f1">Simulator</text>
  <rect x="96" y="648" width="168" height="32" rx="4" fill="#2c3e50"/>
  <text x="180" y="668" text-anchor="middle" font-size="9" fill="#ecf0f1">Recorded Path</text>
  <!-- Close X -->
  <text x="268" y="550" text-anchor="middle" font-size="14" fill="#e74c3c" cursor="pointer">x</text>

  <!-- RIGHT BAR: Fully visible (all actions) -->
  <rect x="1128" y="528" width="64" height="250" rx="10" fill="#1a1a2e" opacity="0.92" filter="url(#shadow)"/>

  <!-- Right bar buttons -->
  <rect x="1136" y="536" width="48" height="40" rx="6" fill="#2c3e50"/>
  <text x="1160" y="556" text-anchor="middle" font-size="8" fill="#95a5a6" font-weight="bold">CTR</text>
  <text x="1160" y="567" text-anchor="middle" font-size="8" fill="#95a5a6" font-weight="bold">OFF</text>

  <rect x="1136" y="582" width="48" height="40" rx="6" fill="#2c3e50"/>
  <text x="1160" y="602" text-anchor="middle" font-size="8" fill="#95a5a6" font-weight="bold">MAN</text>
  <text x="1160" y="613" text-anchor="middle" font-size="8" fill="#95a5a6" font-weight="bold">OFF</text>

  <rect x="1136" y="628" width="48" height="40" rx="6" fill="#2ecc71"/>
  <text x="1160" y="648" text-anchor="middle" font-size="8" fill="#fff" font-weight="bold">SEC</text>
  <text x="1160" y="659" text-anchor="middle" font-size="8" fill="#fff" font-weight="bold">MST</text>

  <rect x="1136" y="674" width="48" height="40" rx="6" fill="#2ecc71"/>
  <text x="1160" y="694" text-anchor="middle" font-size="8" fill="#fff" font-weight="bold">AUTO</text>
  <text x="1160" y="705" text-anchor="middle" font-size="8" fill="#fff" font-weight="bold">STEER</text>

  <rect x="1136" y="720" width="48" height="40" rx="6" fill="#2c3e50"/>
  <text x="1160" y="740" text-anchor="middle" font-size="8" fill="#ecf0f1" font-weight="bold">SNAP</text>
  <text x="1160" y="751" text-anchor="middle" font-size="8" fill="#ecf0f1" font-weight="bold">L / R</text>

  <!-- Right bar label -->
  <text x="1160" y="790" text-anchor="middle" font-size="9" fill="#e67e22" font-weight="bold">ACTIONS</text>

  <!-- BOTTOM BAR: Shortcuts (same as scene 1) -->
  <rect x="300" y="742" width="580" height="48" rx="10" fill="#1a1a2e" opacity="0.92" filter="url(#shadow)"/>

  <rect x="312" y="748" width="40" height="36" rx="6" fill="#2ecc71"/>
  <text x="332" y="771" text-anchor="middle" font-size="16" font-weight="bold" fill="#fff">8</text>

  <rect x="358" y="748" width="40" height="36" rx="6" fill="#2ecc71"/>
  <text x="378" y="765" text-anchor="middle" font-size="8" fill="#fff" font-weight="bold">AUTO</text>
  <text x="378" y="775" text-anchor="middle" font-size="8" fill="#fff" font-weight="bold">STEER</text>

  <rect x="404" y="748" width="40" height="36" rx="6" fill="#2c3e50"/>
  <text x="424" y="770" text-anchor="middle" font-size="8" fill="#95a5a6" font-weight="bold">CTR</text>

  <rect x="450" y="748" width="40" height="36" rx="6" fill="#2ecc71"/>
  <text x="470" y="770" text-anchor="middle" font-size="8" fill="#fff" font-weight="bold">SEC M</text>

  <rect x="496" y="748" width="40" height="36" rx="6" fill="#2ecc71"/>
  <text x="516" y="770" text-anchor="middle" font-size="8" fill="#fff" font-weight="bold">HDL</text>

  <rect x="542" y="748" width="40" height="36" rx="6" fill="#2ecc71"/>
  <text x="562" y="770" text-anchor="middle" font-size="8" fill="#fff" font-weight="bold">U-T</text>

  <rect x="588" y="748" width="40" height="36" rx="6" fill="#2c3e50"/>
  <text x="608" y="770" text-anchor="middle" font-size="12" fill="#ecf0f1">&lt;&lt;</text>

  <rect x="634" y="748" width="40" height="36" rx="6" fill="#2c3e50"/>
  <text x="654" y="770" text-anchor="middle" font-size="12" fill="#ecf0f1">&gt;&gt;</text>

  <rect x="680" y="748" width="40" height="36" rx="6" fill="#2c3e50"/>
  <text x="700" y="770" text-anchor="middle" font-size="8" fill="#95a5a6" font-weight="bold">MAN</text>

  <rect x="726" y="748" width="40" height="36" rx="6" fill="#2c3e50"/>
  <text x="746" y="770" text-anchor="middle" font-size="8" fill="#ecf0f1" font-weight="bold">A+</text>

  <rect x="772" y="748" width="40" height="36" rx="6" fill="#2c3e50"/>
  <text x="792" y="770" text-anchor="middle" font-size="8" fill="#ecf0f1" font-weight="bold">B+</text>

  <rect x="824" y="748" width="48" height="36" rx="6" fill="#1a1a2e" stroke="#3498db" stroke-width="1" stroke-dasharray="3,2"/>
  <text x="848" y="770" text-anchor="middle" font-size="8" fill="#3498db">Sprayer</text>

  <!-- Bottom bar label -->
  <text x="590" y="800" text-anchor="middle" font-size="9" fill="#9b59b6" font-weight="bold">SHORTCUTS (per-implement, always visible)</text>

  <!-- Floating section panel (shown when section button tapped) -->
  <rect x="380" y="620" width="420" height="70" rx="10" fill="#1a1a2e" opacity="0.95" filter="url(#shadow)"/>
  <text x="590" y="640" text-anchor="middle" font-size="11" fill="#ecf0f1" font-weight="bold">Section Control</text>
  <g transform="translate(392, 650)">
    <rect x="0" y="0" width="44" height="30" rx="4" fill="#2ecc71"/><text x="22" y="20" text-anchor="middle" font-size="10" fill="#fff">1</text>
    <rect x="50" y="0" width="44" height="30" rx="4" fill="#2ecc71"/><text x="72" y="20" text-anchor="middle" font-size="10" fill="#fff">2</text>
    <rect x="100" y="0" width="44" height="30" rx="4" fill="#2ecc71"/><text x="122" y="20" text-anchor="middle" font-size="10" fill="#fff">3</text>
    <rect x="150" y="0" width="44" height="30" rx="4" fill="#2ecc71"/><text x="172" y="20" text-anchor="middle" font-size="10" fill="#fff">4</text>
    <rect x="200" y="0" width="44" height="30" rx="4" fill="#2ecc71"/><text x="222" y="20" text-anchor="middle" font-size="10" fill="#fff">5</text>
    <rect x="250" y="0" width="44" height="30" rx="4" fill="#e74c3c"/><text x="272" y="20" text-anchor="middle" font-size="10" fill="#fff">6</text>
    <rect x="300" y="0" width="44" height="30" rx="4" fill="#7f8c8d"/><text x="322" y="20" text-anchor="middle" font-size="10" fill="#fff">7</text>
    <rect x="350" y="0" width="44" height="30" rx="4" fill="#7f8c8d"/><text x="372" y="20" text-anchor="middle" font-size="10" fill="#fff">8</text>
  </g>
  <!-- Arrow from section button to floating panel -->
  <line x1="332" y1="748" x2="390" y2="690" stroke="#3498db" stroke-width="1.5" stroke-dasharray="4,3"/>

  <!-- Annotation arrow for floating panel -->
  <text x="820" y="660" font-size="10" fill="#3498db" font-style="italic">Floating: tap section</text>
  <text x="820" y="673" font-size="10" fill="#3498db" font-style="italic">button to show/hide</text>

</svg>